<svg xmlns="http://www.w3.org/2000/svg" xmlns:xlink="http://www.w3.org/1999/xlink" version="1.1" baseProfile="full" viewBox="0 0 200 200" width="200" height="200">
<g fill="black">
<path d="M 71.4 150.2 L 67.2 146.5 L 62.5 142.8 L 60.064516162872316 141.1138957977295 L 55.7 148.5 L 46.8 160.4 L 36.7 170.9 L 25.6 180.0 L 13.4 187.7 L 12.5 186.2 L 23.2 177.1 L 32.9 167.2 L 41.6 156.3 L 49.2 144.5 L 53.291199684143066 136.6229140281677 L 51.7 135.6 L 45.6 132.0 L 39.0 128.5 L 32.0 124.8 L 24.6 121.1 L 24.63529415130615 121.0 L 21.8 121.0 L 35.030912494659425 63.0 L 12.0 63.0 L 12.0 59.0 L 35.9433892250061 59.0 L 46.3 13.6 L 57.6 18.3 L 60.1 20.9 L 56.79499158859253 21.818057918548583 L 48.286952304840085 59.0 L 73.16486482620239 59.0 L 73.81352319717408 51.499888229370114 L 73.8 51.5 L 74.1 48.3 L 85.9 51.4 L 88.7 53.6 L 85.43871870040894 55.230640697479245 L 83.6 70.5 L 80.2 88.5 L 75.8 105.3 L 70.2 120.9 L 64.41747179031373 133.32812032699584 L 67.5 135.0 L 73.1 138.4 L 78.3 141.9 L 83.0 145.7 L 87.4 149.7 L 88.9 154.0 L 87.0 158.2 L 82.6 159.7 L 78.5 157.8 L 75.2 154.0 Z M 47.37166500091553 63.0 L 34.1 121.0 L 32.10526313781738 121.0 L 33.4 121.3 L 41.1 123.5 L 48.3 126.0 L 55.1 128.8 L 56.720779228210446 129.54805192947387 L 61.5 117.6 L 66.1 102.5 L 69.7 86.3 L 72.3 69.0 L 72.81891889572144 63.0 Z " />
</g>
</svg>
